
        <svg xmlns="http://www.w3.org/2000/svg" xmlns:xlink="http://www.w3.org/1999/xlink" version="1.1" width="3322.671357480634" 
        height="888.0990502328572" viewBox="0 0 3322.671357480634 888.0990502328572">
			
			<g transform="scale(16.133567874031694) translate(10, 10)">
				<defs id="SvgjsDefs2713"><linearGradient id="SvgjsLinearGradient2720"><stop id="SvgjsStop2721" stop-color="#00ff8f" offset="0"></stop><stop id="SvgjsStop2722" stop-color="#00a1ff" offset="1"></stop></linearGradient></defs><g id="SvgjsG2714" featureKey="monogramFeature-0" transform="matrix(0.8344443224376475,0,0,0.8344443224376475,-1.351798911066296,-15.019997803877656)" fill="url(#SvgjsLinearGradient2720)"><path d="M31.32 21.96 l-12.72 0 l0 38.04 l-4.2 0 l0 -38.04 l-12.78 0 l0.3 -3.96 l29.1 0 z M63.17999999999999 60 l-13.5 -20.22 l-7.14 8.76 l0 11.46 l-4.2 0 l0 -42 l4.2 0 l0 24.12 l19.8 -24.12 l5.1 0 l-14.94 18.36 l15.6 23.64 l-4.92 0 z"></path></g><g id="SvgjsG2715" featureKey="nameFeature-0" transform="matrix(0.2902353602907023,0,0,0.2902353602907023,74.68654610981925,1.63326970991185)" fill="#ffffff"><path d="M20.88 14.64 l-8.48 0 l0 25.36 l-2.8 0 l0 -25.36 l-8.52 0 l0.2 -2.64 l19.4 0 z M48.196 40 l-2.72 -6.32 l-13.56 0 l-2.72 6.32 l-3 0 l12.32 -28.4 l0.36 0 l12.32 28.4 l-3 0 z M33.036 31.08 l11.32 0 l-5.68 -13.16 z M85.792 11.600000000000001 l0.4 0 l0 28.4 l-2.76 0 l0 -20.84 l-10.72 14.68 l-0.24 0 l-10.72 -14.6 l0 20.76 l-2.76 0 l0 -28.4 l0.36 0 l13.24 17.8 z M96.788 40 l0 -28 l2.8 0 l0 28 l-2.8 0 z M130.144 22.04 c0 4.44 -2.28 8.56 -7 9.68 l6.36 8.28 l-3.4 0 l-6.12 -7.96 l-7 0 l0 7.96 l-2.8 0 l0 -28 l10.2 0 c6.6 0 9.76 4.76 9.76 10.04 z M112.98400000000001 14.600000000000001 l0 14.84 l7.24 0 c5.04 0 7.16 -3.8 7.16 -7.4 s-2.12 -7.44 -7.16 -7.44 l-7.24 0 z M173.376 40 l-9 -13.48 l-4.76 5.84 l0 7.64 l-2.8 0 l0 -28 l2.8 0 l0 16.08 l13.2 -16.08 l3.4 0 l-9.96 12.24 l10.4 15.76 l-3.28 0 z M204.41200000000003 40 l-2.72 -6.32 l-13.56 0 l-2.72 6.32 l-3 0 l12.32 -28.4 l0.36 0 l12.32 28.4 l-3 0 z M189.252 31.08 l11.32 0 l-5.68 -13.16 z M233.32800000000003 12 l2.8 0 l0 28 l-2.8 0 l0 -13.28 l-15.32 0 l0 13.28 l-2.8 0 l0 -28 l2.8 0 l0 12.08 l15.32 0 l0 -12.08 z M265.92400000000004 40 l-2.72 -6.32 l-13.56 0 l-2.72 6.32 l-3 0 l12.32 -28.4 l0.36 0 l12.32 28.4 l-3 0 z M250.764 31.08 l11.32 0 l-5.68 -13.16 z M279.52 37.36 l12.36 0 l-0.2 2.64 l-14.96 0 l0 -28 l2.8 0 l0 25.36 z M319.276 40 l-2.72 -6.32 l-13.56 0 l-2.72 6.32 l-3 0 l12.32 -28.4 l0.36 0 l12.32 28.4 l-3 0 z M304.116 31.08 l11.32 0 l-5.68 -13.16 z M349.792 12 l2.76 0 l0 28.4 l-0.36 0 l-19.36 -21.8 l0 21.4 l-2.76 0 l0 -28.4 l0.36 0 l19.36 21.8 l0 -21.4 z M383.34799999999996 12 l-9.96 15.44 l0 12.56 l-2.8 0 l0 -12.48 l-10 -15.52 l3.2 0 l8.2 12.68 l8.16 -12.68 l3.2 0 z"></path></g><g id="SvgjsG2716" featureKey="sloganFeature-0" transform="matrix(0.6149065964675103,0,0,0.6149065964675103,74.26441837394546,18.92931840175556)" fill="#ffffff"><path d="M16.08 6.800000000000001 c0.12 0 0.2 0.1 0.16 0.22 l-3.44 12.86 c-0.02 0.08 -0.1 0.12 -0.18 0.12 l-2.2 0 c-0.08 0 -0.14 -0.04 -0.18 -0.12 l-1.36 -5.06 l-1.84 5.08 c-0.02 0.06 -0.06 0.1 -0.14 0.1 l-2.12 0 c-0.08 0 -0.14 -0.04 -0.16 -0.12 l-3.42 -12.88 c-0.02 -0.1 0.04 -0.2 0.18 -0.2 l2.3 0 c0.06 0 0.12 0.06 0.14 0.12 l2.22 8.48 l1.66 -5.02 l-0.92 -3.36 c-0.04 -0.12 0.06 -0.22 0.16 -0.22 l2.48 0 c0.08 0 0.12 0.02 0.16 0.12 l1.84 8.16 l2.2 -8.16 c0.02 -0.06 0.08 -0.12 0.16 -0.12 l2.3 0 z M9.04 10.58 l-3.02 8.04 l-3.24 -10.66 c-0.04 -0.14 -0.28 -0.08 -0.24 0.06 l3.24 10.68 c0.06 0.28 0.4 0.26 0.5 0 l2.86 -7.72 l2.1 7.7 c0.08 0.3 0.44 0.3 0.5 0.02 l3.18 -10.68 c0.06 -0.14 -0.2 -0.22 -0.24 -0.06 l-3.16 10.66 l-2.92 -10.66 c-0.02 -0.14 -0.28 -0.1 -0.22 0.06 z M19.52 20 c-0.1 0 -0.16 -0.08 -0.16 -0.18 l0 -12.84 c0 -0.1 0.06 -0.18 0.16 -0.18 l6.8 0 c0.1 0 0.18 0.08 0.18 0.18 l0 2.14 c0 0.1 -0.08 0.18 -0.18 0.18 l-4.32 0 l0 2.72 l3.36 0 c0.1 0 0.16 0.08 0.16 0.18 l0 2.18 c0 0.1 -0.06 0.18 -0.16 0.18 l-3.36 0 l0 2.94 l4.32 0 c0.1 0 0.18 0.08 0.18 0.18 l0 2.14 c0 0.1 -0.08 0.18 -0.18 0.18 l-6.8 0 z M20.52 8.06 l0 10.64 c0 0.12 0.08 0.16 0.16 0.16 l4.6 0 c0.18 0 0.14 -0.24 0 -0.24 l-4.5 0 l0 -5.22 l3.68 0 c0.12 0 0.12 -0.28 0 -0.28 l-3.68 0 l0 -4.96 l4.5 0 c0.14 0 0.18 -0.26 0 -0.26 l-4.6 0 c-0.08 0 -0.16 0.06 -0.16 0.16 z M37.42 10.22 c0 0.78 -0.12 1.46 -0.4 1.96 c0.76 0.72 1.08 1.88 1.08 3.5 c0 1.72 -0.36 2.94 -1.18 3.58 c-0.78 0.62 -1.88 0.74 -2.98 0.74 l-3.9 0 c-0.1 0 -0.16 -0.08 -0.16 -0.18 l0 -12.84 c0 -0.1 0.06 -0.18 0.16 -0.18 l3.2 0 c1.08 0 2.2 0.08 2.96 0.58 c0.94 0.6 1.22 1.68 1.22 2.84 z M32.519999999999996 9.42 l0 1.8 l1.22 0 c0.64 0 0.98 -0.2 0.98 -0.9 s-0.52 -0.9 -1.4 -0.9 l-0.8 0 z M33.28 17.38 c1.1 0 2.14 -0.48 2.14 -1.76 c0 -0.96 -0.68 -1.72 -1.7 -1.72 l-1.2 0 l0 3.48 l0.76 0 z M31.04 8.06 l0 10.66 c0 0.1 0.08 0.14 0.16 0.14 l2.68 0 c1.94 0 3.1 -0.98 3.1 -3.08 c0 -1.5 -0.34 -3.06 -1.9 -3.5 c0.92 -0.3 1.16 -1.22 1.16 -2.2 c0 -1.6 -0.9 -2.18 -2.52 -2.18 l-2.52 0 c-0.12 0 -0.16 0.06 -0.16 0.16 z M33.58 18.62 l-2.28 0 l0 -6.16 l2.82 0 c2.06 0 2.58 1.34 2.58 3.32 c0 2.02 -1.1 2.92 -3.12 2.84 z M36 10.08 c0 1.62 -0.68 2.12 -2.32 2.12 l-2.38 0 l0 -4.04 l2.42 0 c1.18 0 2.28 0.22 2.28 1.92 z M54.02 6.800000000000001 c1.36 0 2.38 0.38 3.06 1.12 c0.6 0.66 0.9 1.64 0.9 2.84 l0 5.3 c0 2.42 -1.4 3.94 -3.96 3.94 l-5 0 c-0.1 0 -0.16 -0.08 -0.16 -0.18 l0 -12.84 c0 -0.1 0.06 -0.18 0.16 -0.18 l5 0 z M55.36000000000001 15.46 l0 -4.1 c0 -1.26 -0.66 -2.06 -2.06 -2.06 l-1.8 0 l0 8.2 l1.8 0 c1.2 0 2.06 -0.78 2.06 -2.04 z M50.080000000000005 8.02 l0 10.76 c0 0.08 0.08 0.1 0.12 0.1 l3.26 0 c2.3 0 3.34 -1.38 3.34 -2.66 l0 -5.12 c0 -2.12 -1.12 -3.2 -3.4 -3.2 l-3.2 0 c-0.04 0 -0.12 0.02 -0.12 0.12 z M56.56 11.1 l0 5.12 c0 1.6 -1.6 2.44 -3.1 2.44 l-3.14 0 l0 -10.5 l3.08 0 c2.1 0 3.16 0.94 3.16 2.94 z M61.64000000000001 20 c-0.1 0 -0.16 -0.08 -0.16 -0.18 l0 -12.84 c0 -0.1 0.06 -0.18 0.16 -0.18 l6.8 0 c0.1 0 0.18 0.08 0.18 0.18 l0 2.14 c0 0.1 -0.08 0.18 -0.18 0.18 l-4.32 0 l0 2.72 l3.36 0 c0.1 0 0.16 0.08 0.16 0.18 l0 2.18 c0 0.1 -0.06 0.18 -0.16 0.18 l-3.36 0 l0 2.94 l4.32 0 c0.1 0 0.18 0.08 0.18 0.18 l0 2.14 c0 0.1 -0.08 0.18 -0.18 0.18 l-6.8 0 z M62.64000000000001 8.06 l0 10.64 c0 0.12 0.08 0.16 0.16 0.16 l4.6 0 c0.18 0 0.14 -0.24 0 -0.24 l-4.5 0 l0 -5.22 l3.68 0 c0.12 0 0.12 -0.28 0 -0.28 l-3.68 0 l0 -4.96 l4.5 0 c0.14 0 0.18 -0.26 0 -0.26 l-4.6 0 c-0.08 0 -0.16 0.06 -0.16 0.16 z M73.7 6.92 l2.2 8.28 l2.26 -8.28 c0.04 -0.06 0.08 -0.12 0.16 -0.12 l2.28 0 c0.12 0 0.2 0.1 0.16 0.22 l-3.46 12.86 c-0.04 0.08 -0.08 0.12 -0.16 0.12 l-2.48 0 c-0.06 0 -0.12 -0.04 -0.14 -0.12 l-3.46 -12.86 c-0.02 -0.12 0.06 -0.22 0.18 -0.22 l2.3 0 c0.08 0 0.12 0.06 0.16 0.12 z M75.86 18.62 l-3.34 -10.66 c-0.06 -0.16 -0.28 -0.06 -0.22 0.06 l3.32 10.68 c0.08 0.3 0.4 0.32 0.5 0 l3.2 -10.68 c0.04 -0.12 -0.18 -0.2 -0.22 -0.06 z M83.70000000000002 20 c-0.1 0 -0.16 -0.08 -0.16 -0.18 l0 -12.84 c0 -0.1 0.06 -0.18 0.16 -0.18 l6.8 0 c0.1 0 0.18 0.08 0.18 0.18 l0 2.14 c0 0.1 -0.08 0.18 -0.18 0.18 l-4.32 0 l0 2.72 l3.36 0 c0.1 0 0.16 0.08 0.16 0.18 l0 2.18 c0 0.1 -0.06 0.18 -0.16 0.18 l-3.36 0 l0 2.94 l4.32 0 c0.1 0 0.18 0.08 0.18 0.18 l0 2.14 c0 0.1 -0.08 0.18 -0.18 0.18 l-6.8 0 z M84.70000000000002 8.06 l0 10.64 c0 0.12 0.08 0.16 0.16 0.16 l4.6 0 c0.18 0 0.14 -0.24 0 -0.24 l-4.5 0 l0 -5.22 l3.68 0 c0.12 0 0.12 -0.28 0 -0.28 l-3.68 0 l0 -4.96 l4.5 0 c0.14 0 0.18 -0.26 0 -0.26 l-4.6 0 c-0.08 0 -0.16 0.06 -0.16 0.16 z M96.5 6.800000000000001 c0.1 0 0.18 0.08 0.18 0.18 l0 10.5 l4.32 0 c0.1 0 0.18 0.08 0.18 0.18 l0 2.16 c0 0.1 -0.08 0.18 -0.18 0.18 l-6.78 0 c-0.1 0 -0.16 -0.08 -0.16 -0.18 l0 -12.84 c0 -0.1 0.06 -0.18 0.16 -0.18 l2.28 0 z M95.26 8.02 l0 10.76 c0 0.04 0.04 0.1 0.12 0.1 l4.62 0 c0.16 0 0.16 -0.26 0 -0.26 l-4.52 0 l0 -10.6 c0 -0.14 -0.22 -0.16 -0.22 0 z M108.32000000000001 6.619999999999999 c1.72 0 2.92 0.38 3.68 1.2 c0.6 0.66 0.88 1.6 0.88 2.94 l0 5.26 c0 1.38 -0.28 2.34 -0.88 2.98 c-0.78 0.8 -1.96 1.2 -3.68 1.2 c-1.78 0 -2.94 -0.4 -3.7 -1.2 c-0.58 -0.64 -0.9 -1.6 -0.9 -2.98 l0 -5.26 c0 -1.34 0.32 -2.28 0.9 -2.96 c0.78 -0.8 1.96 -1.18 3.7 -1.18 z M110.22000000000001 15.42 l0 -4 c0 -1.76 -0.94 -2.12 -1.8 -2.12 l-0.24 0 c-1.28 0 -1.78 0.82 -1.78 2.12 l0 4 c0 1.76 0.94 2.14 1.78 2.14 l0.24 0 c1.28 0 1.78 -0.86 1.8 -2.14 z M104.98 10.9 l0 4.96 c0 0.94 0.24 1.72 0.8 2.3 c0.52 0.52 1.32 0.8 2.3 0.8 l0.52 0 c1.88 0 3.1 -1.2 3.1 -3.1 l0 -4.96 c0 -2.04 -1.08 -3.14 -3.1 -3.14 l-0.52 0 c-2.04 0 -3.1 1.1 -3.1 3.14 z M108.60000000000001 18.7 l-0.52 0 c-0.94 0 -1.64 -0.24 -2.14 -0.74 s-0.76 -1.2 -0.76 -2.1 l0 -4.96 c0 -1.9 1.02 -2.9 2.9 -2.9 l0.52 0 c1.9 0 2.84 0.98 2.84 2.9 l0 4.96 c0 0.84 -0.26 1.6 -0.8 2.12 c-0.52 0.44 -1.22 0.72 -2.04 0.72 z M120.68 6.800000000000001 c2.22 0 3.56 1.26 3.56 3.6 l0 2.52 c0 2.14 -1.32 3.58 -3.56 3.58 l-1.68 0 l0 3.32 c0 0.1 -0.08 0.18 -0.18 0.18 l-2.3 0 c-0.08 0 -0.14 -0.08 -0.14 -0.18 l0 -12.84 c0 -0.1 0.06 -0.18 0.14 -0.18 l4.16 0 z M121.62000000000002 12.32 l0 -1.32 c0 -1.38 -0.64 -1.52 -2.04 -1.52 l-0.58 0 l0 4.4 l0.58 0 c1.1 0 2.04 -0.2 2.04 -1.56 z M123.04000000000002 12.780000000000001 l0 -2.5 c0 -2.2 -1.7 -2.38 -2.62 -2.38 l-2.7 0 c-0.04 0 -0.12 0.06 -0.12 0.12 l0 10.76 c0 0.14 0.24 0.14 0.24 0 l0 -3.4 l2.4 0 c1.76 0 2.8 -0.62 2.8 -2.6 z M117.84000000000002 8.16 l2.58 0 c2.22 0 2.36 1.46 2.36 2.12 l0 2.5 c0 2.04 -1.28 2.32 -2.54 2.32 l-2.4 0 l0 -6.94 z M127.22000000000001 20 c-0.1 0 -0.16 -0.08 -0.16 -0.18 l0 -12.84 c0 -0.1 0.06 -0.18 0.16 -0.18 l6.8 0 c0.1 0 0.18 0.08 0.18 0.18 l0 2.14 c0 0.1 -0.08 0.18 -0.18 0.18 l-4.32 0 l0 2.72 l3.36 0 c0.1 0 0.16 0.08 0.16 0.18 l0 2.18 c0 0.1 -0.06 0.18 -0.16 0.18 l-3.36 0 l0 2.94 l4.32 0 c0.1 0 0.18 0.08 0.18 0.18 l0 2.14 c0 0.1 -0.08 0.18 -0.18 0.18 l-6.8 0 z M128.22 8.06 l0 10.64 c0 0.12 0.08 0.16 0.16 0.16 l4.6 0 c0.18 0 0.14 -0.24 0 -0.24 l-4.5 0 l0 -5.22 l3.68 0 c0.12 0 0.12 -0.28 0 -0.28 l-3.68 0 l0 -4.96 l4.5 0 c0.14 0 0.18 -0.26 0 -0.26 l-4.6 0 c-0.08 0 -0.16 0.06 -0.16 0.16 z M145.08 14.780000000000001 c-0.28 0.58 -0.68 1.02 -1.24 1.28 l1.68 3.7 c0.06 0.12 -0.02 0.24 -0.14 0.24 l-2.46 0 c-0.08 0 -0.12 -0.04 -0.14 -0.1 l-1.56 -3.4 l-1.02 0 l0 3.32 c0 0.1 -0.08 0.18 -0.18 0.18 l-2.3 0 c-0.08 0 -0.14 -0.08 -0.14 -0.18 l0 -12.84 c0 -0.1 0.06 -0.18 0.14 -0.18 l4.16 0 c2.22 0 3.56 1.26 3.56 3.6 l0 2.52 c0 0.7 -0.12 1.36 -0.36 1.86 z M142.82000000000002 12.3 l0 -1.3 c0 -1.4 -0.52 -1.54 -2.04 -1.54 l-0.58 0 l0 4.42 l0.58 0 c1.26 0 2 -0.02 2.04 -1.58 z M139.04000000000002 18.78 l0 -3.42 l2.88 0 l1.68 3.46 c0.04 0.1 0.28 0.06 0.22 -0.12 l-1.68 -3.4 c1.56 -0.22 2.1 -1.04 2.1 -2.52 l0 -2.5 c0 -2.2 -2 -2.38 -2.62 -2.38 l-2.7 0 c-0.04 0 -0.12 0.06 -0.12 0.12 l0 10.76 c0 0.14 0.24 0.14 0.24 0 z M144.00000000000003 10.28 l0 2.5 c0 2.04 -1.3 2.32 -2.56 2.32 l-2.4 0 l0 -6.94 l2.58 0 c2.16 0 2.38 1.46 2.38 2.12 z"></path></g>
			</g>
		</svg>
	